HIERARCHY
ROOT Hips
{
    OFFSET   0.000000   0.000000   0.000000
    CHANNELS 6 Xposition Yposition Zposition Zrotation Xrotation Yrotation
    JOINT Chest
    {
        OFFSET   0.000000   8.007230   0.000000
        CHANNELS 3 Zrotation Xrotation Yrotation
        JOINT Chest2
        {
            OFFSET   0.000000  22.077100   0.000000
            CHANNELS 3 Zrotation Xrotation Yrotation
            JOINT Neck
            {
                OFFSET   0.000000  23.255100   0.000000
                CHANNELS 3 Zrotation Xrotation Yrotation
                JOINT Head
                {
                    OFFSET   0.000000  14.370100   1.956600
                    CHANNELS 3 Zrotation Xrotation Yrotation
                    End Site
                    {
                        OFFSET   0.000000  19.566000   0.000000
                    }
                }
            }
            JOINT LeftCollar
            {
                OFFSET   3.911900  19.017000  -0.467063
                CHANNELS 3 Zrotation Xrotation Yrotation
                JOINT LeftShoulder
                {
                    OFFSET  10.383700   0.000000   0.000000
                    CHANNELS 3 Zrotation Xrotation Yrotation
                    JOINT LeftElbow
                    {
                        OFFSET  26.662100   0.001193   0.000980
                        CHANNELS 3 Zrotation Xrotation Yrotation
                        JOINT LeftWrist
                        {
                            OFFSET  28.869000  -0.000059  -0.000082
                            CHANNELS 3 Zrotation Xrotation Yrotation
                            JOINT LeftFinger0
                            {
                                OFFSET   2.044650  -2.323450   3.252850
                                CHANNELS 3 Zrotation Xrotation Yrotation
                                JOINT LeftFinger01
                                {
                                    OFFSET   3.088130   0.000000   0.000000
                                    CHANNELS 3 Zrotation Xrotation Yrotation
                                    JOINT LeftFinger02
                                    {
                                        OFFSET   2.639460   0.000000   0.000000
                                        CHANNELS 3 Zrotation Xrotation Yrotation
                                        End Site
                                        {
                                            OFFSET   2.582190   0.000000   0.000000
                                        }
                                    }
                                }
                            }
                            JOINT LeftFinger1
                            {
                                OFFSET   8.364480   0.000000   3.252850
                                CHANNELS 3 Zrotation Xrotation Yrotation
                                JOINT LeftFinger11
                                {
                                    OFFSET   4.646930   0.000000   0.000000
                                    CHANNELS 3 Zrotation Xrotation Yrotation
                                    JOINT LeftFinger12
                                    {
                                        OFFSET   2.323470   0.000000   0.000000
                                        CHANNELS 3 Zrotation Xrotation Yrotation
                                        End Site
                                        {
                                            OFFSET   2.273050   0.000000   0.000000
                                        }
                                    }
                                }
                            }
                            JOINT LeftFinger2
                            {
                                OFFSET   8.364490   0.000016   1.078090
                                CHANNELS 3 Zrotation Xrotation Yrotation
                                JOINT LeftFinger21
                                {
                                    OFFSET   5.111610   0.000000   0.000000
                                    CHANNELS 3 Zrotation Xrotation Yrotation
                                    JOINT LeftFinger22
                                    {
                                        OFFSET   2.788150   0.000016   0.000000
                                        CHANNELS 3 Zrotation Xrotation Yrotation
                                        End Site
                                        {
                                            OFFSET   2.727660   0.000000   0.000000
                                        }
                                    }
                                }
                            }
                            JOINT LeftFinger3
                            {
                                OFFSET   7.899780   0.000015  -1.078090
                                CHANNELS 3 Zrotation Xrotation Yrotation
                                JOINT LeftFinger31
                                {
                                    OFFSET   4.646930   0.000000   0.000000
                                    CHANNELS 3 Zrotation Xrotation Yrotation
                                    JOINT LeftFinger32
                                    {
                                        OFFSET   2.323470   0.000000   0.000000
                                        CHANNELS 3 Zrotation Xrotation Yrotation
                                        End Site
                                        {
                                            OFFSET   2.273050   0.000000   0.000000
                                        }
                                    }
                                }
                            }
                            JOINT LeftFinger4
                            {
                                OFFSET   7.435090   0.000000  -3.252850
                                CHANNELS 3 Zrotation Xrotation Yrotation
                                JOINT LeftFinger41
                                {
                                    OFFSET   3.717550   0.000000   0.000000
                                    CHANNELS 3 Zrotation Xrotation Yrotation
                                    JOINT LeftFinger42
                                    {
                                        OFFSET   1.858770   0.000000   0.000000
                                        CHANNELS 3 Zrotation Xrotation Yrotation
                                        End Site
                                        {
                                            OFFSET   1.818440   0.000000   0.000000
                                        }
                                    }
                                }
                            }
                        }
                    }
                }
            }
            JOINT RightCollar
            {
                OFFSET  -3.911910  19.017000  -0.467062
                CHANNELS 3 Zrotation Xrotation Yrotation
                JOINT RightShoulder
                {
                    OFFSET -10.383700   0.000014   0.000000
                    CHANNELS 3 Zrotation Xrotation Yrotation
                    JOINT RightElbow
                    {
                        OFFSET -26.662100   0.001225   0.001091
                        CHANNELS 3 Zrotation Xrotation Yrotation
                        JOINT RightWrist
                        {
                            OFFSET -28.869000  -0.000020  -0.000085
                            CHANNELS 3 Zrotation Xrotation Yrotation
                            JOINT RightFinger0
                            {
                                OFFSET  -2.044650  -2.323490   3.252850
                                CHANNELS 3 Zrotation Xrotation Yrotation
                                JOINT RightFinger01
                                {
                                    OFFSET  -3.088130   0.000000   0.000000
                                    CHANNELS 3 Zrotation Xrotation Yrotation
                                    JOINT RightFinger02
                                    {
                                        OFFSET  -2.639460   0.000000   0.000000
                                        CHANNELS 3 Zrotation Xrotation Yrotation
                                        End Site
                                        {
                                            OFFSET  -2.582190   0.000000   0.000000
                                        }
                                    }
                                }
                            }
                            JOINT RightFinger1
                            {
                                OFFSET  -8.364480   0.000000   3.252850
                                CHANNELS 3 Zrotation Xrotation Yrotation
                                JOINT RightFinger11
                                {
                                    OFFSET  -4.646930   0.000000   0.000000
                                    CHANNELS 3 Zrotation Xrotation Yrotation
                                    JOINT RightFinger12
                                    {
                                        OFFSET  -2.323470   0.000000   0.000000
                                        CHANNELS 3 Zrotation Xrotation Yrotation
                                        End Site
                                        {
                                            OFFSET  -2.273050   0.000000   0.000000
                                        }
                                    }
                                }
                            }
                            JOINT RightFinger2
                            {
                                OFFSET  -8.364480   0.000000   1.078090
                                CHANNELS 3 Zrotation Xrotation Yrotation
                                JOINT RightFinger21
                                {
                                    OFFSET  -5.111620   0.000000   0.000000
                                    CHANNELS 3 Zrotation Xrotation Yrotation
                                    JOINT RightFinger22
                                    {
                                        OFFSET  -2.788160   0.000000   0.000000
                                        CHANNELS 3 Zrotation Xrotation Yrotation
                                        End Site
                                        {
                                            OFFSET  -2.727660   0.000000   0.000000
                                        }
                                    }
                                }
                            }
                            JOINT RightFinger3
                            {
                                OFFSET  -7.899780   0.000000  -1.078090
                                CHANNELS 3 Zrotation Xrotation Yrotation
                                JOINT RightFinger31
                                {
                                    OFFSET  -4.646930   0.000000   0.000000
                                    CHANNELS 3 Zrotation Xrotation Yrotation
                                    JOINT RightFinger32
                                    {
                                        OFFSET  -2.323470   0.000000   0.000000
                                        CHANNELS 3 Zrotation Xrotation Yrotation
                                        End Site
                                        {
                                            OFFSET  -2.273050   0.000000   0.000000
                                        }
                                    }
                                }
                            }
                            JOINT RightFinger4
                            {
                                OFFSET  -7.435090   0.000000  -3.252850
                                CHANNELS 3 Zrotation Xrotation Yrotation
                                JOINT RightFinger41
                                {
                                    OFFSET  -3.717550   0.000000   0.000000
                                    CHANNELS 3 Zrotation Xrotation Yrotation
                                    JOINT RightFinger42
                                    {
                                        OFFSET  -1.858760   0.000000   0.000000
                                        CHANNELS 3 Zrotation Xrotation Yrotation
                                        End Site
                                        {
                                            OFFSET  -1.818440   0.000000   0.000000
                                        }
                                    }
                                }
                            }
                        }
                    }
                }
            }
        }
    }
    JOINT LeftHip
    {
        OFFSET   9.783030   0.000000   0.000000
        CHANNELS 3 Zrotation Xrotation Yrotation
        JOINT LeftKnee
        {
            OFFSET   0.000063 -41.789100   0.000608
            CHANNELS 3 Zrotation Xrotation Yrotation
            JOINT LeftAnkle
            {
                OFFSET   0.000048 -41.133200  -0.000184
                CHANNELS 3 Zrotation Xrotation Yrotation
                JOINT LeftToe
                {
                    OFFSET   0.000000  -6.358960  14.674500
                    CHANNELS 3 Zrotation Xrotation Yrotation
                    End Site
                    {
                        OFFSET   0.000000   0.000000   3.913200
                    }
                }
            }
        }
    }
    JOINT RightHip
    {
        OFFSET  -9.783030   0.000000   0.000000
        CHANNELS 3 Zrotation Xrotation Yrotation
        JOINT RightKnee
        {
            OFFSET   0.000071 -41.789100   0.001239
            CHANNELS 3 Zrotation Xrotation Yrotation
            JOINT RightAnkle
            {
                OFFSET   0.000037 -41.133200  -0.000166
                CHANNELS 3 Zrotation Xrotation Yrotation
                JOINT RightToe
                {
                    OFFSET   0.000000  -6.358960  14.674500
                    CHANNELS 3 Zrotation Xrotation Yrotation
                    End Site
                    {
                        OFFSET   0.000000   0.000000   3.913200
                    }
                }
            }
        }
    }
}
MOTION
Frames: 6
Frame Time:   0.016667
 -0.946060  89.307300   4.536340  -5.778400  -9.735570  -9.619170   1.584050   6.892350  -0.657228   3.284290  13.763200  -1.524430  11.432600   0.862737  -0.174437  18.792300   1.542250   7.118720  -3.127050  -0.182552   4.506720 -79.763500  -2.882200  -9.734960   3.463960 -43.030000 -26.919600  44.054900 -83.870600  34.049800  37.965500  16.922200 -56.077600 -19.031500  -0.004734  -0.001502  -4.515770   0.002328  -0.003773 -19.533200   1.591490  -4.477790 -16.032700   0.010493  -0.011391 -11.222900   0.010137   0.000189 -20.361000  -2.560820   6.863860 -20.514500   0.002643  -0.012458 -13.662700   0.000722  -0.005621 -18.138900  -2.291650   6.958000 -18.278200   0.002144  -0.000482 -12.173300   0.000261  -0.006087 -20.519800  -2.579860   6.856780 -31.011500   0.003844  -0.002547 -20.653700   0.002782   0.003785   8.595170   0.605792   8.270950  70.276900 -12.935800   9.925770 -10.012100 -39.347100  19.691000  -3.904240 -76.117700   4.640260 -46.333100  26.014800  55.870300   6.590440  -0.003039   0.000474  -1.704780  -0.001405   0.000969  20.724500   3.733140   9.762100  17.217400   0.000619   0.001147  12.052200   0.000076   0.005049  23.226100  -0.092026  -0.215405  23.226400  -0.000128   0.001849  15.468800   0.001061   0.002943  24.253800  -2.258870  -5.000260  24.352800   0.002052   0.000333  16.219000   0.001156   0.005025  32.173500  -2.926670  -4.641590  48.438900  -0.000436   0.000851  32.260300   0.003032  -0.002898   3.116910  16.370000   3.630280   1.201040   0.385835   8.039950  -1.392770  -6.983260   5.364890  -0.000000   0.000000  -0.000000   4.968230  13.919700  -5.011880   0.137944   0.930698  -5.464600  -1.610340  -4.837590   5.668750  -0.000000   0.000000   0.000000
 -0.945631  89.311600   4.504830  -5.748310  -9.742480  -9.554820   1.569740   6.941370  -0.630803   3.253190  13.862200  -1.470930  11.340500   0.687436  -0.137832  18.637700   1.231410   7.359300  -3.149140  -0.289255   4.428530 -79.686600  -2.829930  -9.823980   3.402140 -43.030700 -26.462500  44.610300 -83.758400  34.650400  37.817800  16.745100 -56.097100 -19.195200  -0.004730  -0.001556  -4.597590   0.002331  -0.003845 -19.688700   1.667230  -4.649860 -16.164400   0.010538  -0.011380 -11.315100   0.010113   0.000178 -20.499300  -2.510310   6.685300 -20.645600   0.002619  -0.012510 -13.750000   0.000694  -0.005620 -18.282000  -2.249620   6.777120 -18.417000   0.002141  -0.000459 -12.265700   0.000220  -0.006091 -20.657800  -2.530810   6.677800 -31.217600   0.003839  -0.002501 -20.791000   0.002774   0.003792   8.591270   0.540415   8.305270  70.272500 -12.823900   9.872220 -10.020100 -39.488700  19.665400  -6.926380 -76.260200   1.736710 -45.975500  25.751800  56.011700   7.099530  -0.003026   0.000533  -1.450240  -0.001401   0.000977  21.311400   3.861900   9.759330  17.704800   0.000611   0.001172  12.393400   0.000084   0.005052  23.754600  -0.092320  -0.208990  23.755000  -0.000137   0.001854  15.820900   0.001488   0.002965  24.796900  -2.287100  -4.929260  24.897000   0.002104   0.000398  16.581400   0.001530   0.005026  32.781900  -2.954480  -4.558390  49.352500  -0.000389   0.000886  32.868800   0.003047  -0.002915   3.105710  16.346500   3.612470   1.211230   0.381019   8.044030  -1.406130  -6.954230   5.314990  -0.000000   0.000000   0.000000   4.937130  13.928900  -5.058460   0.170600   0.889949  -5.557480  -1.604190  -4.816250   5.759470  -0.000000   0.000000   0.000000
 -0.944563  89.314300   4.473970  -5.717370  -9.749340  -9.487200   1.553400   6.989990  -0.604964   3.218010  13.960300  -1.418300  11.245700   0.503196  -0.100071  18.479000   0.903088   7.647310  -3.169640  -0.380105   4.393340 -79.649600  -2.767100  -9.868880   3.317620 -43.054900 -26.155900  44.539600 -83.680600  34.604900  37.674600  16.578300 -56.143200 -19.354300  -0.004727  -0.001638  -4.677150   0.002335  -0.003918 -19.865700   1.727720  -4.770250 -16.312700   0.010582  -0.011373 -11.418900   0.010089   0.000165 -20.645200  -2.490780   6.579360 -20.788500   0.002596  -0.012563 -13.845100   0.000666  -0.005617 -18.437900  -2.234620   6.670390 -18.568200   0.002136  -0.000436 -12.366400   0.000181  -0.006096 -20.839900  -2.513210   6.570850 -31.476400   0.003834  -0.002457 -20.963300   0.002766   0.003803   8.586260   0.488619   8.346500  70.306700 -12.754700   9.824850 -10.012300 -39.693200  19.665300  -8.182950 -76.346800   0.556547 -45.757400  25.565000  56.023500   7.388870  -0.003020   0.000561  -1.305570  -0.001396   0.000985  21.744600   3.927650   9.746090  18.065100   0.000601   0.001197  12.645600   0.000099   0.005055  24.217400  -0.094377  -0.208073  24.217500  -0.000145   0.001862  16.128900   0.001918   0.002986  25.195700  -2.321050  -4.918610  25.295400   0.002159   0.000477  16.846700   0.001893   0.005026  33.230400  -2.986630  -4.545950  50.023600  -0.000341   0.000919  33.315700   0.003061  -0.002933   3.095780  16.321600   3.592410   1.218740   0.378011   8.048120  -1.419410  -6.926380   5.264090  -0.000000   0.000000  -0.000000   4.904640  13.938000  -5.105020   0.201697   0.852207  -5.632750  -1.601190  -4.794120   5.812190  -0.000000   0.000000   0.000000
 -0.942922  89.314800   4.443440  -5.687970  -9.755190  -9.416690   1.537120   7.035870  -0.583458   3.183360  14.052900  -1.374280  11.140000   0.308202  -0.060715  18.302600   0.554291   8.020990  -3.191110  -0.444094   4.394350 -79.649800  -2.673520  -9.863790   3.203480 -43.120300 -26.045200  43.163600 -83.651300  33.246300  37.574100  16.455000 -56.139600 -19.448500  -0.004749  -0.001694  -4.724250   0.002342  -0.003996 -19.986300   1.759610  -4.817290 -16.413100   0.010626  -0.011382 -11.489200   0.010067   0.000162 -20.737500  -2.492090   6.548950 -20.880600   0.002575  -0.012622 -13.906500   0.000634  -0.005610 -18.530200  -2.236280   6.640430 -18.660400   0.002129  -0.000407 -12.427800   0.000143  -0.006089 -20.940800  -2.514760   6.539920 -31.627400   0.003829  -0.002416 -21.063900   0.002755   0.003810   8.578500   0.445819   8.386140  70.372000 -12.752300   9.786880 -10.012200 -39.824700  19.668100  -7.188570 -76.365500   1.565260 -45.858100  25.617300  55.935400   7.314040  -0.003023   0.000479  -1.342980  -0.001397   0.000998  21.791800   3.922040   9.711160  18.103300   0.000590   0.001218  12.672300   0.000116   0.005052  24.373100  -0.113918  -0.249148  24.373300  -0.000159   0.001863  16.232600   0.002348   0.003001  25.257300  -2.327970  -4.917930  25.357200   0.002224   0.000589  16.887900   0.002247   0.005026  33.277900  -2.992030  -4.545200  50.094900  -0.000296   0.000940  33.363200   0.003079  -0.002943   3.092340  16.291700   3.571670   1.220700   0.381955   8.042140  -1.432260  -6.901070   5.217480  -0.000000   0.000000   0.000000   4.875050  13.932000  -5.135670   0.223987   0.835021  -5.672770  -1.602200  -4.774590   5.811430  -0.000000   0.000000  -0.000000
 -0.939363  89.314900   4.412490  -5.659320  -9.759080  -9.344720   1.519630   7.078100  -0.561835   3.146120  14.138200  -1.329700  11.030000   0.106228  -0.020702  18.120700   0.191420   8.432490  -3.214090  -0.493017   4.396650 -79.670800  -2.587340  -9.832860   3.128290 -43.173000 -26.045900  41.273300 -83.662000  31.367800  37.532500  16.387400 -56.150300 -19.514900  -0.004771  -0.001722  -4.757470   0.002347  -0.004073 -20.094300   1.769280  -4.824020 -16.501700   0.010669  -0.011391 -11.551200   0.010045   0.000161 -20.818900  -2.500170   6.544650 -20.961900   0.002555  -0.012679 -13.960600   0.000601  -0.005605 -18.607700  -2.244900   6.636190 -18.737900   0.002122  -0.000380 -12.479400   0.000102  -0.006081 -21.026400  -2.523930   6.535550 -31.755800   0.003823  -0.002375 -21.149400   0.002745   0.003814   8.569010   0.411916   8.422620  70.441800 -12.750400   9.736850 -10.024900 -39.888500  19.673200  -6.099980 -76.371700   2.670830 -45.968800  25.675700  55.851700   7.239220  -0.003026   0.000397  -1.380390  -0.001399   0.001010  21.808900   3.916300   9.686000  18.115300   0.000578   0.001239  12.680700   0.000135   0.005048  24.420800  -0.131694  -0.290222  24.421200  -0.000175   0.001864  16.264500   0.002780   0.003015  25.282900  -2.328960  -4.917230  25.383000   0.002290   0.000715  16.905100   0.002593   0.005025  33.299800  -2.992810  -4.544430  50.128000  -0.000245   0.000964  33.385200   0.003096  -0.002950   3.087820  16.256100   3.559430   1.222760   0.385908   8.026630  -1.445040  -6.874380   5.172870  -0.000000   0.000000   0.000000   4.846200  13.912800  -5.163280   0.243222   0.830360  -5.694430  -1.603250  -4.756440   5.807080  -0.000000   0.000000   0.000000
 -0.932104  89.314900   4.378940  -5.635610  -9.746880  -9.282930   1.501900   7.112800  -0.533605   3.107400  14.208600  -1.271460  10.918400  -0.101936   0.019576  17.937100  -0.184749   8.853770  -3.241570  -0.535547   4.400880 -79.715800  -2.545070  -9.744050   3.065270 -43.158200 -26.183600  39.912100 -83.703900  30.021100  37.499000  16.357700 -56.219400 -19.581500  -0.004761  -0.001687  -4.790760   0.002340  -0.004143 -20.213100   1.769240  -4.812900 -16.598500   0.010711  -0.011376 -11.619000   0.010024   0.000158 -20.918200  -2.520370   6.561140 -21.062600   0.002533  -0.012726 -14.027700   0.000573  -0.005608 -18.700000  -2.263840   6.653560 -18.831500   0.002118  -0.000363 -12.541800   0.000051  -0.006078 -21.128200  -2.544840   6.551910 -31.910600   0.003810  -0.002328 -21.252500   0.002741   0.003804   8.557470   0.385413   8.452510  70.485100 -12.713500   9.643410  -9.993010 -39.837800  19.769900  -6.067680 -76.443800   2.749120 -45.943800  25.711000  55.976300   7.267310  -0.003014   0.000413  -1.366340  -0.001402   0.001017  21.820000   3.925980   9.703840  18.126300   0.000564   0.001267  12.688400   0.000154   0.005051  24.477600  -0.116928  -0.256956  24.477800  -0.000185   0.001868  16.302200   0.003212   0.003035  25.349600  -2.316820  -4.874510  25.448400   0.002350   0.000835  16.948600   0.002933   0.005021  33.359800  -2.974640  -4.503890  50.215400  -0.000171   0.001006  33.443400   0.003107  -0.002961   3.083570  16.206600   3.559800   1.230860   0.383577   8.000510  -1.458370  -6.842980   5.131780   0.000000   0.000000   0.000000   4.819650  13.865200  -5.186700   0.262762   0.835777  -5.707250  -1.605170  -4.739320   5.792770   0.000000   0.000000   0.000000
